<?xml version="1.0" encoding="UTF-8" standalone="no"?>
<svg
   xmlns:dc="http://purl.org/dc/elements/1.1/"
   xmlns:cc="http://creativecommons.org/ns#"
   xmlns:rdf="http://www.w3.org/1999/02/22-rdf-syntax-ns#"
   xmlns:svg="http://www.w3.org/2000/svg"
   xmlns="http://www.w3.org/2000/svg"
   xmlns:sodipodi="http://sodipodi.sourceforge.net/DTD/sodipodi-0.dtd"
   xmlns:inkscape="http://www.inkscape.org/namespaces/inkscape"
   version="1.1"
   id="svg2"
   width="118.08"
   height="119.52"
   viewBox="0 0 118.08 119.52"
   sodipodi:docname="logoQuae.svg"
   inkscape:version="1.0.2 (1.0.2+r75+1)">
  <metadata
     id="metadata8">
    <rdf:RDF>
      <cc:Work
         rdf:about="">
        <dc:format>image/svg+xml</dc:format>
        <dc:type
           rdf:resource="http://purl.org/dc/dcmitype/StillImage" />
        <dc:title></dc:title>
      </cc:Work>
    </rdf:RDF>
  </metadata>
  <defs
     id="defs6" />
  <sodipodi:namedview
     pagecolor="#ffffff"
     bordercolor="#666666"
     borderopacity="1"
     objecttolerance="10"
     gridtolerance="10"
     guidetolerance="10"
     inkscape:pageopacity="0"
     inkscape:pageshadow="2"
     inkscape:window-width="1366"
     inkscape:window-height="714"
     id="namedview4"
     showgrid="false"
     inkscape:zoom="3.5175344"
     inkscape:cx="59.040001"
     inkscape:cy="68.233952"
     inkscape:window-x="0"
     inkscape:window-y="28"
     inkscape:window-maximized="1"
     inkscape:current-layer="g10" />
  <g
     inkscape:groupmode="layer"
     inkscape:label="Image"
     id="g10">
    <g
       id="g839"
       transform="matrix(0.91074712,0,0,0.91074712,6.5704974,5.0486332)">
      <path
         style="fill:#d0d0d0;fill-opacity:1;stroke-width:0.48"
         d="m 65.799058,118.76823 c -8.408439,-2.29526 -12.856421,-10.36895 -10.354311,-18.794473 0.829344,-2.792703 3.999207,-6.624639 6.669739,-8.062815 0.949032,-0.511089 1.716135,-1.150132 1.704677,-1.420094 C 63.807691,90.220882 62.773694,85.68 61.521374,80.4 L 59.244418,70.8 55.962667,70.698797 C 50.113426,70.518422 45.240102,68.28059 41.131763,63.888446 35.741363,58.125672 34.21268,49.878994 37.181009,42.57558 l 1.129809,-2.779835 -1.755409,-1.103157 c -0.965475,-0.606736 -3.557568,-2.218671 -5.760207,-3.582077 l -4.004797,-2.47892 -2.357985,2.120032 C 21.66068,37.243655 18.633062,38.4 14.88,38.4 11.102458,38.4 8.0959325,37.240609 5.2588838,34.689858 0.94993363,30.815742 -0.65158349,25.846713 0.70370568,20.556502 3.7988857,8.474832 19.028151,5.2424117 26.469265,15.087746 29.108023,18.579085 29.992157,22.496828 29.184638,27.12 l -0.335363,1.92 5.560728,3.36 c 3.058401,1.848 5.730893,3.426527 5.938872,3.507837 0.20798,0.08131 1.636565,-0.823105 3.174635,-2.009812 4.39141,-3.388217 7.181607,-4.325507 12.87649,-4.325507 5.379264,0 8.236258,0.874635 12.219667,3.74091 L 70.8,34.882295 80.420453,27.878891 90.04091,20.875487 89.38932,18.717744 C 89.010302,17.462633 88.824984,15.342941 88.946318,13.650622 89.848061,1.0731707 105.07505,-4.5965099 113.82532,4.3870668 c 5.69515,5.8469902 5.62693,14.7684552 -0.15673,20.4948622 -5.3094,5.256853 -13.720134,5.77903 -19.087201,1.185022 -1.160539,-0.993381 -2.170565,-1.511495 -2.535231,-1.300505 -0.333388,0.192892 -4.632345,3.257986 -9.553243,6.811321 l -8.947085,6.460609 1.405589,3.003672 c 2.932608,6.266839 2.886183,12.407632 -0.139589,18.462736 -1.634812,3.27155 -5.937854,7.511582 -9.250809,9.115358 -1.808151,0.875309 -2.154855,1.24826 -1.954051,2.101988 0.13426,0.570825 1.182384,5.028744 2.329161,9.90648 l 2.085053,8.868604 3.05015,0.617343 c 5.801194,1.174147 9.453034,3.902707 11.652821,8.706691 1.57212,3.433262 1.440063,8.595602 -0.311107,12.161682 -3.057058,6.22539 -10.150867,9.54954 -16.61399,7.7853 z m 6.515337,-4.28352 c 6.448887,-1.91511 9.239554,-9.34366 5.748183,-15.301235 -3.734712,-6.372801 -13.306882,-6.487915 -17.461416,-0.20999 -1.879671,2.840365 -2.091672,7.451505 -0.481215,10.466515 1.682117,3.14917 5.354247,5.47079 9.032933,5.71087 0.414082,0.027 1.836763,-0.27275 3.161515,-0.66616 z M 62.730365,65.189093 C 67.964616,63.264072 72.147254,57.564374 72.781968,51.491741 73.463462,44.971562 69.58619,38.193929 63.451243,35.181233 61.073712,34.013698 60.160536,33.840314 56.4,33.842425 c -5.174102,0.0029 -7.618781,0.939381 -11.202098,4.291156 -3.442823,3.220358 -5.077127,7.077418 -5.100081,12.036513 -0.01575,3.403632 0.165417,4.222301 1.562339,7.05985 3.89154,7.904842 12.438854,11.133542 21.070205,7.959149 z M 20.735241,32.365514 c 3.78188,-2.658005 5.322422,-7.079491 4.007533,-11.501956 C 22.549616,13.487148 13.606031,11.130047 7.870535,16.416842 4.3364555,19.674443 3.5425584,24.372965 5.7781848,28.8 c 1.884515,3.731757 4.9442302,5.360118 9.6811292,5.152237 2.671942,-0.117259 3.568994,-0.387045 5.275927,-1.586723 z M 106.56,24.487189 c 0.924,-0.257101 2.5179,-1.158616 3.54199,-2.003367 C 117.4464,16.425597 113.0064,4.32 103.44,4.32 c -9.63276,0 -13.982986,12.111161 -6.556901,18.254609 2.702539,2.235755 6.101271,2.907493 9.676901,1.91258 z"
         id="path855" />
      <path
         style="fill:#b9b9b9;fill-opacity:1;stroke-width:0.48"
         d="m 63.99563,118.25398 c -2.727532,-0.96647 -5.895316,-3.86441 -7.611806,-6.96338 -1.26755,-2.28847 -1.423085,-3.0184 -1.41709,-6.6506 0.0058,-3.4794 0.194564,-4.43778 1.282714,-6.510461 1.273589,-2.42591 4.104211,-5.368728 6.228086,-6.474941 0.617357,-0.321547 1.205405,-0.656318 1.306776,-0.743928 0.101372,-0.08761 -0.869083,-4.67844 -2.156563,-10.201838 L 59.286878,70.666282 55.195133,70.470653 C 44.158396,69.942979 35.987114,61.319746 35.935194,50.145451 c -0.01262,-2.716265 0.278701,-4.700736 0.986502,-6.719997 0.552427,-1.576 1.057038,-3.062861 1.121358,-3.304135 0.06432,-0.241275 -2.431616,-2.033795 -5.546526,-3.983378 l -5.663473,-3.544696 -2.423162,2.178631 c -3.85898,3.469555 -8.896302,4.47726 -14.323844,2.865453 -1.9570892,-0.581193 -3.2141069,-1.40926 -5.28269,-3.48 C 1.5847683,30.935383 0.48,28.206043 0.48,23.476432 0.48,20.764624 0.73244198,19.756225 2.0470439,17.216755 7.4941925,6.6942749 22.263938,6.7391074 27.763818,17.294816 c 1.562645,2.999125 1.610433,3.253436 1.399134,7.445688 l -0.218771,4.340503 5.845129,3.612431 5.84513,3.61243 1.769583,-1.529684 c 2.762247,-2.387774 6.979423,-4.413493 10.562523,-5.073705 5.4277,-1.000093 11.573942,0.554723 16.393454,4.147059 l 1.44,1.073337 9.707218,-7.021437 C 87.547733,22.808879 90.134592,20.682207 89.9238,20.16 85.845451,10.056485 94.11408,-0.97297546 104.93001,0.14332709 c 9.14892,0.94425141 15.16291,10.06113991 12.4101,18.81304091 -1.12431,3.574476 -4.53935,7.378308 -8.01046,8.922415 C 104.44763,30.050533 97.187515,28.9878 94.043558,25.641207 93.443563,25.002543 92.778173,24.48 92.564918,24.48 c -0.620467,0 -19.176878,13.543934 -18.999465,13.867308 4.010693,7.310362 4.510233,14.160919 1.497072,20.530226 -1.675656,3.54204 -5.341589,7.38842 -8.797263,9.230271 C 64.667366,68.959474 63.36,69.728261 63.36,69.816211 c 0,0.251275 4.326715,18.651634 4.591666,19.527135 0.17268,0.570604 0.982737,0.839563 2.9827,0.990326 7.289189,0.549494 12.778863,6.572112 12.795975,14.038228 0.0096,4.16243 -0.703248,6.31098 -3.099327,9.34225 -2.726808,3.44966 -6.736152,5.33797 -11.22768,5.28795 -1.871836,-0.0208 -4.305302,-0.35749 -5.407704,-0.74812 z m 10.836111,-4.84978 c 2.774208,-1.71517 4.848259,-5.45105 4.848259,-8.73294 0,-3.35787 -2.059354,-7.112431 -4.827034,-8.800529 -3.128908,-1.908422 -6.316233,-2.185973 -9.478915,-0.825427 -4.51475,1.942195 -6.607843,5.484746 -6.240576,10.562156 0.562795,7.78055 8.970365,11.95628 15.698266,7.79674 z M 63.668251,64.802213 c 3.478315,-1.712367 6.039557,-4.378119 7.786867,-8.104608 C 72.510845,54.446069 72.72,53.325346 72.72,49.92 c 0,-3.48103 -0.194122,-4.475284 -1.322304,-6.772551 -5.01191,-10.205537 -18.04752,-12.741771 -26.142097,-5.086257 -3.724071,3.522071 -5.124972,6.745939 -5.15313,11.858808 -0.01884,3.421507 0.179039,4.509619 1.226065,6.741902 4.143141,8.833268 13.791008,12.348831 22.339717,8.140311 z M 19.44,33.247094 C 23.142455,31.397439 25.155847,28.057005 25.158191,23.76 25.16053,19.470776 23.006843,16.198247 18.96,14.341843 12.353283,11.311151 4.2923984,16.766069 4.3332187,24.24 c 0.00958,1.753231 1.586629,5.352999 3.0165739,6.885607 2.9666854,3.179677 8.1510594,4.089387 12.0902074,2.121487 z m 87.97542,-9.032557 c 3.89821,-1.628376 6.31589,-5.337839 6.33404,-9.718374 C 113.78767,5.2794053 102.29506,0.78378989 95.905464,7.5160402 91.082597,12.597545 92.734392,21.093546 99.12,24.049986 c 2.35437,1.090038 5.91097,1.160589 8.29542,0.164551 z"
         id="path853" />
      <path
         style="fill:#a3a3a3;fill-opacity:1;stroke-width:0.48"
         d="M 64.657286,118.37649 C 54.700891,114.6676 51.619829,102.77775 58.56527,94.867334 c 0.871109,-0.99214 2.41429,-2.227555 3.429284,-2.745369 1.014993,-0.51781 1.846896,-1.207085 1.848672,-1.531719 C 63.845146,90.265608 62.828712,85.626 61.584811,80.28 l -2.261635,-9.72 h -2.971027 c -5.651525,0 -11.547305,-2.615976 -15.328487,-6.801293 -4.983885,-5.516563 -6.543301,-14.892662 -3.61021,-21.706644 0.555871,-1.291365 0.951246,-2.389556 0.878611,-2.440425 -0.07263,-0.05087 -2.688349,-1.666279 -5.812698,-3.589799 l -5.680636,-3.49731 -1.759364,1.686844 C 21.901501,37.219893 19.504431,38.148612 14.88,38.147507 11.382569,38.146671 10.448858,37.96226 8.3407925,36.855986 -5.0671493,29.819749 -0.2073642,9.4588234 14.88,9.4588234 c 5.998867,0 11.38458,3.6697336 13.468982,9.1775366 0.845573,2.234332 0.989346,3.416964 0.800286,6.582898 l -0.230463,3.859258 5.983259,3.722551 5.98326,3.72255 2.153268,-1.984813 c 6.821317,-6.28767 17.990552,-6.780212 25.4054,-1.12033 l 2.170982,1.657149 9.452516,-6.81902 c 5.19888,-3.750461 9.608256,-6.949021 9.798609,-7.107911 0.190354,-0.158889 0.01272,-1.364345 -0.394752,-2.678791 C 86.781307,9.7921603 94.18705,0 103.44,0 c 3.86566,0 6.94003,1.3791566 10.11779,4.5388237 2.54658,2.532088 3.0284,3.3114985 3.78726,6.1264653 2.33171,8.649456 -3.10604,16.914289 -12.08338,18.365502 -3.74695,0.605705 -7.91563,-0.828295 -12.397092,-4.264526 -0.381173,-0.292269 -3.648533,1.799049 -10.017788,6.412016 -5.198659,3.765163 -9.377011,6.984344 -9.28522,7.153735 1.489051,2.747914 2.826916,6.383411 3.198739,8.692233 1.346337,8.359994 -3.401227,17.525004 -11.098661,21.425589 -1.265909,0.641487 -2.290483,1.432695 -2.276832,1.75825 0.01363,0.32555 1.06489,4.911912 2.336093,10.191912 l 2.311281,9.6 2.981756,0.335054 c 5.994604,0.673604 10.687233,4.806039 12.324019,10.852806 0.696926,2.57466 0.746227,3.51557 0.296544,5.65944 -1.058631,5.04707 -3.688704,8.64917 -7.894594,10.81231 -2.60639,1.34049 -8.402155,1.71539 -11.082629,0.71688 z m 9.844258,-4.7021 c 1.108704,-0.61291 2.673418,-2.05099 3.477144,-3.19574 C 79.305384,108.58904 79.44,108.05119 79.44,104.64 c 0,-3.39493 -0.139166,-3.95804 -1.442971,-5.838653 C 76.325011,96.389621 72.261139,94.08 69.689616,94.08 63.567216,94.08 59.04,98.569118 59.04,104.64 c 0,4.65951 2.49865,8.29627 6.834662,9.94777 2.195967,0.8364 6.235296,0.40873 8.626882,-0.91338 z M 63.131069,65.096678 c 3.455683,-1.582065 6.484099,-4.483972 8.178907,-7.837248 1.242144,-2.457652 1.405085,-3.279566 1.407403,-7.09943 0.0024,-3.673189 -0.187685,-4.725907 -1.2684,-7.031022 C 69.900293,39.82571 67.120027,36.959063 63.736392,35.176763 61.452154,33.973559 60.722813,33.840739 56.4,33.840739 c -4.322813,0 -5.052154,0.13282 -7.336392,1.336024 -3.383635,1.7823 -6.163899,4.648947 -7.712586,7.952215 -1.087543,2.31967 -1.268005,3.334639 -1.250123,7.031022 0.01875,3.875688 0.17517,4.61917 1.520869,7.228795 2.265754,4.393829 6.339143,7.65169 11.050778,8.838317 2.800857,0.705398 7.575888,0.189278 10.458523,-1.130434 z M 19.842187,33.000328 c 2.651317,-1.466623 4.979667,-4.631359 5.38219,-7.315574 0.440285,-2.936027 -0.01033,-4.936209 -1.719063,-7.630606 C 19.527552,11.781868 9.7254211,12.092758 5.8927574,18.612757 4.7958992,20.478696 4.56,21.446164 4.56,24.078652 c 0,2.781588 0.187758,3.464136 1.44,5.234767 3.5403715,5.005973 8.884429,6.429379 13.842187,3.686909 z m 87.573233,-8.785791 c 2.27953,-0.952215 4.25326,-2.830339 5.47828,-5.212909 1.50119,-2.919717 1.08935,-7.707932 -0.89906,-10.4528602 C 109.717,5.4045816 107.09627,4.2103728 102.91065,4.4094026 100.12392,4.5419141 99.149712,4.8151704 97.576085,5.9056925 92.19743,9.6331027 91.5744,17.67675 96.316042,22.173522 c 2.845099,2.698174 7.484068,3.551214 11.099378,2.041015 z"
         id="path851" />
      <path
         style="fill:#8c8c8c;fill-opacity:1;stroke-width:0.48"
         d="m 64.975061,118.51725 c -0.827717,-0.23989 -2.555717,-1.13841 -3.84,-1.99671 -8.588237,-5.7396 -8.261962,-18.984727 0.595531,-24.175562 C 62.890766,91.665067 63.84,90.776789 63.84,90.371021 63.84,89.965253 62.829259,85.341778 61.593907,80.09663 L 59.347819,70.56 H 56.36447 C 48.308112,70.56 41.06516,65.823557 37.595827,58.286462 35.645529,54.049459 35.452746,48.120394 37.105294,43.2 c 0.664996,-1.98 1.174349,-3.627124 1.131895,-3.660276 -0.04245,-0.03315 -2.619812,-1.620109 -5.727463,-3.526572 l -5.650275,-3.466295 -1.888097,1.705782 c -3.387047,3.059993 -5.499936,3.870353 -10.091354,3.870353 -4.503956,0 -6.5841638,-0.768719 -9.8574806,-3.642729 C -0.68617315,29.467965 -0.99268243,19.564159 4.3875964,13.964892 7.3201363,10.912992 10.460532,9.6093782 14.88,9.6093782 c 4.384313,0 7.601807,1.3197358 10.501149,4.3073098 2.909392,2.99793 4.065483,6.494988 3.739878,11.312751 l -0.261514,3.869439 6.006849,3.717952 6.006849,3.717952 2.159324,-1.990395 c 6.790351,-6.259127 18.524518,-6.665278 25.738659,-0.890885 l 1.811193,1.449729 9.708807,-7.034988 C 85.631035,24.199 89.96387,20.782774 89.919715,20.476628 89.875555,20.170483 89.602776,18.72216 89.313528,17.258134 88.044701,10.835917 91.254763,4.5688224 97.44,1.3925819 c 3.22125,-1.65417589 8.92728,-1.58490538 12.24,0.1485923 5.22146,2.7323096 8.09506,7.374414 8.11916,13.1159378 0.0174,4.137877 -1.59679,7.8456 -4.5947,10.554032 -2.94918,2.6644 -5.56012,3.642189 -9.72556,3.642189 -3.986823,0 -6.267697,-0.759097 -9.103911,-3.029866 -1.596581,-1.278281 -1.999695,-1.40908 -2.8008,-0.908782 -3.057557,1.909476 -18.155693,13.14806 -18.015101,13.409884 2.711376,5.049484 2.960318,6.017897 2.980718,11.595431 0.01915,5.238101 -0.05846,5.686046 -1.519939,8.771438 -1.866216,3.939845 -5.630381,7.859055 -9.120192,9.495855 -1.383302,0.648797 -2.499806,1.494369 -2.499163,1.892707 4.8e-4,0.396 1.025616,5.04 2.277725,10.32 l 2.276568,9.6 2.941473,0.32641 c 5.094778,0.565353 8.909722,3.194553 11.155076,7.6879 1.255612,2.5127 1.468646,3.47379 1.468646,6.62569 0,3.1519 -0.213034,4.11299 -1.468646,6.62569 -1.667794,3.33755 -4.089293,5.50499 -7.670535,6.86576 -2.538456,0.96453 -6.80507,1.13955 -9.405758,0.3858 z M 73.95096,113.88 c 3.548866,-1.79959 5.358552,-4.44287 5.632243,-8.22665 0.267883,-3.70341 -0.539529,-5.995606 -2.964989,-8.417446 C 70.000042,90.62761 58.852301,95.273525 58.852301,104.64 c 0,7.87536 8.061197,12.80861 15.098659,9.24 z M 63.253925,65.048971 c 3.456072,-1.550995 6.852331,-4.903569 8.412917,-8.304701 1.607246,-3.502838 1.496697,-9.957944 -0.23377,-13.650032 -5.958149,-12.712203 -24.11567,-12.691233 -30.08205,0.03474 -1.704998,3.636669 -1.796633,10.106852 -0.192847,13.616478 3.84031,8.403898 13.654115,12.091896 22.09575,8.303515 z M 17.941,33.969061 c 1.142714,-0.342365 2.912674,-1.503337 4.20776,-2.76 3.550626,-3.445286 4.228868,-7.587874 1.97124,-12.040019 -1.809325,-3.568072 -4.438908,-5.358266 -8.278627,-5.636006 -4.740687,-0.34291 -8.2017266,1.593792 -10.2717501,5.747788 -2.1826242,4.379956 -1.4705272,8.520334 2.0534861,11.939677 3.210443,3.115086 6.325166,3.94481 10.317891,2.74856 z m 90.02655,-9.952505 c 2.76974,-1.413019 5.17769,-4.495307 5.78058,-7.399411 C 115.64292,7.490051 104.9017,0.49493064 97.442438,5.9982019 90.809765,10.891633 91.673534,20.244997 99.12,24.163753 c 2.07139,1.090082 6.56895,1.015255 8.84755,-0.147197 z"
         id="path849" />
      <path
         style="fill:#767676;fill-opacity:1;stroke-width:0.48"
         d="M 63.975475,118.02722 C 60.89316,116.84234 57.711816,113.82555 56.185344,110.64 53.087602,104.17543 55.888056,95.434786 62.11547,92.131147 63.576403,91.356125 64.235592,90.724694 64.086302,90.243312 63.828994,89.413613 59.52,71.130274 59.52,70.868184 59.52,70.77311 57.738,70.580578 55.56,70.440336 50.801573,70.133942 47.415624,68.921342 43.893831,66.262363 37.236634,61.23613 34.204682,51.306533 36.99842,43.68 c 0.531894,-1.452 1.074032,-2.964 1.204752,-3.36 0.155007,-0.469572 -0.478976,-1.152948 -1.822749,-1.964759 -1.133233,-0.684617 -3.730343,-2.279438 -5.771355,-3.544046 l -3.710932,-2.299288 -1.990313,1.798129 C 21.827707,37.092735 19.096968,38.138439 14.88,38.15007 11.892918,38.158309 10.812201,37.930283 8.5323614,36.810744 -0.11859794,32.562604 -2.1869607,21.371033 4.3558236,14.212185 10.089636,7.93848 19.673712,7.9421443 25.411533,14.220234 c 3.10392,3.396183 4.120012,6.550443 3.702226,11.492839 l -0.290719,3.439207 6.01285,3.702529 6.01285,3.70253 2.03591,-1.876636 c 6.857251,-6.320796 19.178376,-6.735613 26.108923,-0.879014 l 1.553573,1.312834 1.566427,-1.097444 C 74.887574,32.073605 89.507386,21.485199 89.891674,21.141284 90.096091,20.958339 89.92249,19.478205 89.505907,17.852097 87.798302,11.186662 91.230754,4.2664079 97.68,1.3720958 c 3.30796,-1.48455712 8.20913,-1.48524755 11.52,-0.00162 9.63046,4.315474 11.63966,17.1037082 3.7749,24.0265522 -5.10664,4.495041 -13.631479,4.652794 -18.707359,0.346181 L 92.4,24.158699 l -8.98344,6.52065 c -4.94089,3.586358 -9.212933,6.753491 -9.493421,7.038074 -0.360989,0.366254 -0.0503,1.488142 1.063435,3.84 1.481895,3.129287 1.573292,3.62974 1.571084,8.602577 -0.0024,4.93968 -0.101439,5.49024 -1.539816,8.541869 -1.831436,3.885552 -5.686157,7.87415 -9.206405,9.526166 -1.728029,0.810946 -2.408539,1.404216 -2.399583,2.091965 0.0069,0.528 1.026087,5.172 2.264909,10.32 l 2.2524,9.36 2.635416,0.292978 c 3.601527,0.400377 6.089319,1.54092 8.571725,3.929745 3.102686,2.98572 4.374317,6.014057 4.374317,10.417277 0,4.64794 -1.305115,7.57507 -4.764087,10.68499 -4.088894,3.67626 -9.609796,4.68626 -14.771059,2.70223 z M 72.48,114.72719 c 2.252784,-0.62683 5.09437,-3.04157 6.25393,-5.3145 1.275772,-2.50072 1.279161,-7.03803 0.0071,-9.531434 -1.804781,-3.537662 -5.525242,-5.808902 -9.485631,-5.790715 -6.631334,0.03043 -11.761262,6.505659 -10.225574,12.907129 1.419273,5.91618 7.470091,9.39346 13.450157,7.72952 z M 63.517805,65.101238 C 67.002283,63.396442 70.65599,59.39521 72.012643,55.798397 73.401984,52.114925 73.17431,46.494539 71.492578,42.96 65.620714,30.61897 48.19189,30.245945 41.754082,42.323514 c -2.169742,4.070515 -2.547503,9.28396 -0.974812,13.453268 1.126402,2.986172 4.352851,6.9191 7.037227,8.578133 4.455114,2.753415 10.966377,3.062909 15.701308,0.746323 z M 19.535169,33.434895 C 26.832184,29.661462 27.390547,19.530326 20.550956,15.004098 18.804788,13.848539 18.082956,13.68 14.88,13.68 c -3.202956,0 -3.924788,0.168539 -5.6709557,1.324098 -7.338996,4.856718 -6.0858462,15.819621 2.1591817,18.889122 2.171397,0.808379 6.149079,0.585153 8.166943,-0.458325 z m 89.364291,-9.748342 c 3.5277,-2.311439 5.63658,-6.729144 5.05823,-10.596029 -0.43962,-2.93935 -2.60633,-6.0534245 -5.32044,-7.6467278 -6.14431,-3.6069823 -13.888663,-0.085337 -15.469216,7.0344238 -1.245087,5.608622 2.577331,11.416474 8.160356,12.399002 2.50726,0.441239 5.89313,-0.09124 7.57107,-1.190669 z"
         id="path847" />
      <path
         style="fill:#606060;fill-opacity:1;stroke-width:0.48"
         d="m 64.8,118.31681 c -3.596006,-1.19512 -6.426226,-3.63886 -8.104877,-6.99814 C 55.411104,108.74913 55.2,107.80612 55.2,104.64 c 0,-3.1519 0.213034,-4.11299 1.468646,-6.62569 1.442986,-2.887665 3.732912,-5.18304 6.368938,-6.384096 0.824822,-0.375816 1.21645,-0.866908 1.07689,-1.350403 C 63.832574,89.303194 59.52,70.951133 59.52,70.728144 59.52,70.635662 58.450632,70.56 57.143626,70.56 49.545662,70.56 42.339351,66.595766 38.72454,60.42756 35.772124,55.389643 35.219291,47.508563 37.45393,42.314004 38.046201,40.937234 38.42716,39.70716 38.300507,39.580507 37.904508,39.184508 27.274401,32.64 27.027188,32.64 c -0.12902,0 -1.103516,0.743774 -2.165545,1.652832 C 21.618003,37.069268 18.973,38.070227 14.88,38.070227 9.0667666,38.070227 4.514137,35.326448 2.0705104,30.350203 0.92041411,28.008127 0.72386002,27.030149 0.74601125,23.76 0.76756838,20.577554 0.98971205,19.49889 2.0432914,17.460792 6.3540619,9.1218173 17.29838,6.9500213 24.236094,13.056841 c 3.20484,2.821013 4.70564,6.04424 4.76011,10.223159 0.02409,1.848 -0.0642,3.893264 -0.196204,4.545031 -0.217866,1.075741 0.324512,1.534555 5.881013,4.974938 l 6.121013,3.789908 1.979766,-1.788599 c 1.088871,-0.98373 3.410415,-2.466452 5.158987,-3.294939 C 50.905018,30.10186 51.477038,30 56.4,30 c 4.774886,0 5.553576,0.128106 8.139749,1.339111 1.572859,0.73651 3.590587,1.896548 4.483833,2.57786 l 1.624085,1.238751 1.276167,-0.926848 c 0.701889,-0.509766 5.125953,-3.703763 9.831254,-7.097771 7.424338,-5.355296 8.511634,-6.303108 8.226341,-7.171013 -0.793138,-2.412831 -0.796421,-7.906375 -0.0061,-10.2856454 1.034333,-3.114095 3.95723,-6.3958807 7.084315,-7.9541736 2.065517,-1.02929041 3.146496,-1.23847777 6.354646,-1.22972924 5.81251,0.0158506 9.77248,2.25053214 12.64411,7.13529124 1.1688,1.9882008 1.30164,2.679537 1.30164,6.774167 0,3.9045 -0.17067,4.894145 -1.1873,6.884486 -4.10536,8.037449 -15.22668,10.049723 -22.339987,4.042166 l -1.447287,-1.22231 -8.872713,6.459375 c -4.879987,3.552656 -9.184767,6.639304 -9.566175,6.859216 -0.576816,0.332582 -0.426168,0.979746 0.895536,3.847224 3.125256,6.780334 2.417933,14.769929 -1.833163,20.706512 -2.139033,2.987131 -3.958214,4.514529 -7.533177,6.324941 l -2.44432,1.237814 2.427999,10.350288 L 67.887451,90.24 h 1.761154 c 4.62432,0 10.252142,3.520627 12.573969,7.865966 0.873432,1.634655 1.055002,2.757994 1.056101,6.534034 0.0014,5.07562 -0.441605,6.30794 -3.475373,9.66596 -3.560472,3.94102 -10.018603,5.66748 -15.003302,4.01085 z m 8.535418,-3.86227 c 3.933297,-1.64303 6.532281,-5.54793 6.532281,-9.81454 0,-9.818088 -11.872829,-14.197032 -18.515755,-6.828998 -3.676661,4.077988 -3.676661,9.580008 0,13.657998 3.145478,3.48882 7.926912,4.68006 11.983474,2.98554 z M 62.98427,65.395354 C 65.917886,64.09008 69.878318,60.366082 71.284963,57.590208 74.430427,51.382934 73.45307,44.14296 68.75701,38.863823 61.618546,30.839028 48.818362,31.696332 42.685612,40.609981 36.381132,49.77323 40.81836,62.56103 51.515606,66.057446 54.365621,66.988982 60.153562,66.65484 62.98427,65.395354 Z M 18.96,33.658157 c 9.265845,-4.250511 8.335164,-17.157091 -1.442138,-19.99943 -2.416388,-0.702463 -2.859336,-0.702463 -5.275724,0 C 2.4374037,16.509041 1.5094802,29.375043 10.8,33.654512 c 2.447309,1.127297 5.707334,1.128754 8.16,0.0036 z m 89.44313,-9.742366 c 3.68777,-1.775943 6.26599,-6.639552 5.62954,-10.619673 C 113.39837,9.3294139 111.2397,6.5266838 107.52,4.8403344 104.52075,3.480604 101.97658,3.5743658 98.846069,5.16 c -6.664176,3.3754694 -8.046327,11.719743 -2.808811,16.957258 3.299131,3.299129 7.869542,3.963865 12.365872,1.798533 z"
         id="path845" />
      <path
         style="fill:#494949;fill-opacity:1;stroke-width:0.48"
         d="M 66,118.61775 C 61.890101,117.53244 57.912499,114.19812 56.196806,110.4 54.773328,107.24878 54.835195,101.84354 56.331518,98.630266 57.456274,96.214925 61.901026,91.68 63.143587,91.68 c 0.351864,0 0.757983,-0.191294 0.902482,-0.425098 C 64.190568,91.021094 63.231317,86.276333 61.914398,80.710987 60.59748,75.145637 59.52,70.497485 59.52,70.381762 c 0,-0.115728 -0.81,-0.1019 -1.8,0.03072 -2.6406,0.353745 -7.15007,-0.61188 -10.48294,-2.244744 -3.746283,-1.835405 -7.465644,-5.752632 -9.460364,-9.963648 -1.419683,-2.997072 -1.534595,-3.609596 -1.509108,-8.044095 0.02198,-3.824017 0.251108,-5.367924 1.12688,-7.59312 0.60461,-1.536217 0.952263,-2.940217 0.772562,-3.12 -0.179701,-0.179779 -2.841808,-1.875544 -5.915794,-3.768361 L 26.66217,32.237028 25.003043,33.945376 C 20.995949,38.071349 14.345993,39.298289 9.0880421,36.881749 3.6962833,34.403712 0.81036658,29.942964 0.75408998,24 0.69875352,18.156314 3.3714318,13.79988 8.7733459,10.928706 10.416101,10.055565 11.572855,9.8517034 14.88,9.8524934 c 3.491169,8.16e-4 4.432607,0.1860586 6.52321,1.2834136 5.854156,3.072844 8.81986,9.759454 7.309529,16.480399 -0.323038,1.437512 -0.247729,1.504638 5.835741,5.201572 l 6.163003,3.745267 2.570044,-2.09333 c 4.415185,-3.596217 6.978212,-4.469479 13.118473,-4.46966 4.72788,-1.39e-4 5.567875,0.134763 8.033021,1.290095 1.514165,0.709638 3.47855,1.843638 4.365307,2.52 0.886757,0.676363 1.742914,1.22975 1.902571,1.22975 0.159653,0 4.639507,-3.158578 9.955229,-7.019061 8.452445,-6.138494 9.6246,-7.147142 9.343339,-8.04 C 89.822578,19.419422 89.566766,17.232 89.430989,15.12 c -0.234907,-3.653979 -0.168634,-3.990424 1.368115,-6.9451838 2.839267,-5.4591513 7.383854,-7.98541881 13.696486,-7.613665 7.65885,0.4510338 12.66515,5.6174794 13.03092,13.4477748 0.14598,3.125088 -0.007,4.078846 -1.00038,6.24 -1.58852,3.455687 -3.16831,5.210274 -6.20642,6.893178 -2.30444,1.276495 -2.99053,1.417714 -6.87971,1.41607 -4.626024,-0.002 -5.941267,-0.443829 -9.393725,-3.155945 l -1.713725,-1.346236 -9.627667,6.976411 -9.627662,6.97641 1.103169,1.995593 c 5.55493,10.048673 1.774714,22.682931 -8.411208,28.111971 l -2.778547,1.480948 1.104269,4.68134 c 0.607349,2.574734 1.694731,7.192444 2.416406,10.261584 l 1.312133,5.580249 2.503018,0.258331 c 3.789845,0.391148 7.162929,2.059138 9.563491,4.729138 4.818538,5.359372 4.91233,13.504202 0.216931,18.838452 -3.332717,3.78617 -9.599971,5.86149 -14.106883,4.67133 z m 7.706789,-4.32309 c 2.677421,-1.21613 5.288496,-4.40045 5.983368,-7.29699 1.134758,-4.7302 -1.304919,-9.679676 -5.935786,-12.042169 -2.954361,-1.5072 -7.730025,-1.104303 -10.486632,0.884712 -6.403632,4.620497 -6.109099,13.787987 0.571877,17.799787 3.097733,1.86013 6.68867,2.09838 9.867173,0.65466 z M 63.465763,65.183165 c 10.720901,-4.986149 12.99624,-19.338173 4.331991,-27.324602 -3.375466,-3.111393 -6.82848,-4.468961 -11.407848,-4.485042 -3.396183,-0.01193 -4.227197,0.172127 -7.048714,1.561155 -9.721439,4.785849 -12.558186,16.1121 -6.304043,25.170094 1.595939,2.31143 3.98746,4.111924 7.324681,5.514504 3.739498,1.571649 9.176007,1.390718 13.103933,-0.436109 z M 19.710958,33.24 c 3.54887,-1.799588 5.358552,-4.442871 5.632246,-8.226647 0.247599,-3.423029 -0.47579,-5.818708 -2.428569,-8.042802 -4.341229,-4.944386 -11.728041,-4.944386 -16.0692696,0 C 3.8038079,20.434694 3.4447601,26.146967 6.0337795,29.882487 7.844136,32.494528 11.750405,34.56 14.88,34.56 c 1.479336,0 3.102455,-0.443497 4.830958,-1.32 z m 88.616212,-9.166784 c 2.35741,-1.208773 3.6938,-2.665051 4.9125,-5.353216 1.8522,-4.085532 1.02235,-8.164553 -2.34638,-11.533285 -3.08075,-3.0807445 -6.58472,-4.0050103 -10.6106,-2.7988284 -5.148279,1.5424644 -8.585698,7.6074644 -7.209096,12.7197804 1.833187,6.807924 9.094336,10.123729 15.253576,6.965549 z"
         id="path843" />
      <path
         style="fill:#333333;fill-opacity:1;stroke-width:0.48"
         d="m 64.959576,118.18071 c -4.583486,-1.63794 -8.088571,-5.20686 -9.274829,-9.44375 -0.773803,-2.76376 -0.422582,-8.13663 0.670003,-10.249461 1.223679,-2.366328 4.062413,-5.315933 6.132509,-6.372014 C 63.495264,91.601237 64.32,91.096891 64.32,90.994714 64.32,90.892536 63.24,86.232917 61.92,80.64 60.6,75.047083 59.52,70.403626 59.52,70.321205 c 0,-0.08242 -0.81,-0.04133 -1.8,0.09128 C 53.106883,71.030477 46.567396,68.623238 42.557844,64.831166 36.392137,58.999901 34.418289,50.207755 37.530178,42.436357 L 38.665936,39.6 l -6.001999,-3.712933 -6.002,-3.712934 -1.930969,1.889969 C 19.137654,39.538656 10.32624,39.48002 4.8955306,33.932108 2.0380868,31.012997 0.7488432,27.862441 0.73298678,23.76 0.7096405,17.719746 4.2053317,12.709424 9.9399197,10.56384 18.976851,7.1826902 28.958286,13.819394 29.020736,23.250767 c 0.01059,1.600078 -0.129464,3.571873 -0.311243,4.381767 -0.326289,1.453744 -0.256557,1.518057 5.464667,5.04 3.187346,1.962106 5.957622,3.631316 6.15617,3.709354 0.198547,0.07804 1.794834,-0.943381 3.547302,-2.26982 7.479382,-5.661126 17.523555,-5.79329 24.735622,-0.325479 0.909288,0.689376 1.843028,1.253411 2.074968,1.253411 0.231941,0 4.795431,-3.170562 10.14108,-7.045692 l 9.719362,-7.045693 -0.681974,-1.954307 c -0.950765,-2.724543 -0.55958,-8.086834 0.780681,-10.7015597 3.62064,-7.063536 12.114599,-9.8738829 19.176729,-6.3448947 3.36096,1.6794923 5.0302,3.4462726 6.71132,7.1035045 1.01997,2.2189049 1.15194,3.0742149 0.9628,6.2399999 -0.25815,4.321 -1.27248,6.592139 -4.26526,9.550176 -4.99303,4.935071 -13.347682,5.285349 -18.610838,0.78028 -1.201877,-1.028761 -2.206119,-1.54647 -2.575964,-1.327968 -0.333388,0.196962 -4.762488,3.36181 -9.842448,7.032994 l -9.236284,6.67488 1.171324,1.99914 c 1.488581,2.540605 2.662892,7.024593 2.655552,10.139988 -0.01694,7.19628 -4.611686,14.693842 -10.941984,17.8548 -1.502774,0.750394 -2.778465,1.374499 -2.834875,1.386907 -0.0564,0.01238 0.966941,4.548403 2.274101,10.08 1.30716,5.531592 2.379312,10.189224 2.382557,10.350293 0.0034,0.161064 1.219133,0.418061 2.701973,0.571104 5.126548,0.529109 9.292036,3.402202 11.815219,8.149392 0.872813,1.642136 1.077187,2.800756 1.077187,6.106656 0,4.48103 -0.764832,6.55071 -3.624259,9.80741 -3.326309,3.78846 -9.872899,5.45281 -14.684645,3.7333 z m 9.50375,-4.2615 c 7.472324,-4.06695 7.306484,-15.195364 -0.281184,-18.868492 -3.265579,-1.580841 -8.051971,-1.262328 -10.921454,0.726773 -2.626507,1.820669 -4.702637,5.723839 -4.695998,8.828579 0.0089,4.15894 2.946297,8.54996 6.729652,10.05989 0.652114,0.26025 2.452426,0.48688 4.0007,0.50361 2.180947,0.0236 3.345115,-0.25807 5.168284,-1.25036 z M 63.6,65.261846 c 1.32,-0.626323 3.514699,-2.272348 4.877107,-3.657835 3.230064,-3.284784 4.581504,-6.730829 4.597527,-11.723256 0.01598,-4.985026 -1.610276,-8.620072 -5.444775,-12.170142 C 64.1652,34.50295 61.156272,33.368711 56.16,33.386961 c -10.086131,0.03684 -17.677027,8.897395 -16.300393,19.026802 0.852976,6.276279 4.977622,11.340312 11.02298,13.533461 3.186509,1.156013 9.560587,0.812491 12.717413,-0.685378 z M 20.65054,32.93 c 3.017861,-1.997126 4.49271,-4.641031 4.707291,-8.43858 0.143217,-2.5346 -0.02313,-3.612052 -0.786294,-5.093048 -1.788128,-3.470025 -3.877479,-5.145434 -7.395348,-5.930183 -4.763003,-1.062506 -9.6393312,1.308004 -11.9309492,5.799946 -1.2054432,2.362864 -1.2131897,6.691459 -0.01669,9.325821 0.9957264,2.192312 3.8765746,4.803736 6.0514502,5.485501 2.610458,0.818309 7.258644,0.248129 9.37054,-1.149457 z m 87.7502,-8.889566 c 3.3943,-1.731641 5.84384,-5.70027 5.83658,-9.456124 -0.011,-5.6842767 -5.09314,-10.7389561 -10.79732,-10.7389561 -4.527518,0 -8.792789,3.1508712 -10.16711,7.5107201 -2.867823,9.097773 6.598977,17.035467 15.12785,12.68436 z"
         id="path841" />
    </g>
  </g>
</svg>
